<?xml version="1.0" encoding="UTF-8"?>
<svg xmlns="http://www.w3.org/2000/svg" xmlns:xlink="http://www.w3.org/1999/xlink" width="192px" height="192px" viewBox="0 0 192 192" version="1.1">
<g id="surface1">
<path style="fill-rule:nonzero;fill:rgb(14.509805%,38.82353%,92.156863%);fill-opacity:1;stroke-width:5;stroke-linecap:butt;stroke-linejoin:miter;stroke:rgb(14.509805%,38.82353%,92.156863%);stroke-opacity:1;stroke-miterlimit:4;" d="M 25.036622 854.861215 L 174.963383 854.861215 C 187.410486 854.861215 197.501632 864.952361 197.501632 877.395395 L 197.501632 1027.326225 C 197.501632 1039.773328 187.410486 1049.860406 174.963383 1049.860406 L 25.036622 1049.860406 C 12.589519 1049.860406 2.498372 1039.773328 2.498372 1027.326225 L 2.498372 877.395395 C 2.498372 864.952361 12.589519 854.861215 25.036622 854.861215 Z M 25.036622 854.861215 " transform="matrix(0.96,0,0,0.96,0,-818.280029)"/>
<path style=" stroke:none;fill-rule:nonzero;fill:rgb(100%,100%,100%);fill-opacity:1;" d="M 104.113281 28.789062 C 115.4375 28.789062 125.492188 32.796875 134.273438 40.816406 C 143.691406 49.601562 148.402344 60.480469 148.402344 73.460938 C 148.402344 85.933594 143.628906 96.433594 134.082031 104.960938 C 125.300781 112.980469 115.308594 116.988281 104.113281 116.988281 L 73.375 116.988281 L 73.375 163.1875 L 45.125 163.1875 L 45.125 28.789062 Z M 73.375 52.652344 L 73.375 92.359375 L 102.203125 92.359375 C 106.785156 92.359375 110.921875 90.324219 114.609375 86.253906 C 118.300781 82.179688 120.144531 77.851562 120.144531 73.269531 C 120.144531 67.542969 118.109375 62.578125 114.039062 58.375 C 110.351562 54.558594 106.402344 52.652344 102.203125 52.652344 Z M 73.375 52.652344 "/>
</g>
</svg>
