<?xml version="1.0" encoding="UTF-8"?>
<svg xmlns="http://www.w3.org/2000/svg" xmlns:xlink="http://www.w3.org/1999/xlink" width="512px" height="512px" viewBox="0 0 512 512" version="1.1">
<g id="surface1">
<path style="fill-rule:nonzero;fill:rgb(14.509805%,38.82353%,92.156863%);fill-opacity:1;stroke-width:5;stroke-linecap:butt;stroke-linejoin:miter;stroke:rgb(14.509805%,38.82353%,92.156863%);stroke-opacity:1;stroke-miterlimit:4;" d="M 25.035095 854.862183 L 174.964905 854.862183 C 187.411499 854.862183 197.50061 864.951294 197.50061 877.396362 L 197.50061 1027.327698 C 197.50061 1039.772766 187.411499 1049.861877 174.964905 1049.861877 L 25.035095 1049.861877 C 12.588501 1049.861877 2.49939 1039.772766 2.49939 1027.327698 L 2.49939 877.396362 C 2.49939 864.951294 12.588501 854.862183 25.035095 854.862183 Z M 25.035095 854.862183 " transform="matrix(2.56,0,0,2.56,0,-2182.08)"/>
<path style=" stroke:none;fill-rule:nonzero;fill:rgb(100%,100%,100%);fill-opacity:1;" d="M 277.632812 76.765625 C 307.835938 76.765625 334.644531 87.460938 358.0625 108.847656 C 383.179688 132.269531 395.738281 161.285156 395.738281 195.894531 C 395.738281 229.152344 383.007812 257.15625 357.550781 279.898438 C 334.132812 301.277344 307.492188 311.96875 277.632812 311.96875 L 195.664062 311.96875 L 195.664062 435.167969 L 120.332031 435.167969 L 120.332031 76.765625 Z M 195.664062 140.402344 L 195.664062 246.296875 L 272.539062 246.296875 C 284.757812 246.296875 295.789062 240.867188 305.628906 230.007812 C 315.46875 219.144531 320.386719 207.605469 320.386719 195.382812 C 320.386719 180.117188 314.960938 166.878906 304.105469 155.671875 C 294.265625 145.492188 283.742188 140.402344 272.539062 140.402344 Z M 195.664062 140.402344 "/>
</g>
</svg>
